<svg xmlns="http://www.w3.org/2000/svg" xmlns:xlink="http://www.w3.org/1999/xlink" viewBox="0,0,256,256" width="100px" height="100px" fill-rule="nonzero"><g fill="#f0b4ff" fill-rule="nonzero" stroke="none" stroke-width="1" stroke-linecap="butt" stroke-linejoin="miter" stroke-miterlimit="10" stroke-dasharray="" stroke-dashoffset="0" font-family="none" font-weight="none" font-size="none" text-anchor="none" style="mix-blend-mode: normal"><g transform="scale(2.56,2.56)"><path d="M50,14c-19.851,0 -36,16.149 -36,36c0,19.851 16.149,36 36,36c19.851,0 36,-16.149 36,-36c0,-19.851 -16.149,-36 -36,-36zM50,16c18.748,0 34,15.252 34,34c0,18.748 -15.252,34 -34,34c-18.748,0 -34,-15.252 -34,-34c0,-18.748 15.252,-34 34,-34zM50,19c-17.093,0 -31,13.907 -31,31c0,17.093 13.907,31 31,31c17.093,0 31,-13.907 31,-31c0,-8.721 -3.70506,-17.08712 -10.16406,-22.95312c-0.203,-0.185 -0.51908,-0.1718 -0.70508,0.0332c-0.186,0.204 -0.1718,0.52103 0.0332,0.70703c6.251,5.677 9.83594,13.77389 9.83594,22.21289c0,16.542 -13.458,30 -30,30c-16.542,0 -30,-13.458 -30,-30c0,-16.542 13.458,-30 30,-30c3.549,0 7.02412,0.61322 10.32813,1.82422c0.259,0.099 0.54563,-0.03687 0.64063,-0.29687c0.096,-0.259 -0.03787,-0.54563 -0.29687,-0.64062c-3.415,-1.252 -7.00487,-1.88672 -10.67187,-1.88672zM63.5293,22.14453c-0.19486,-0.0113 -0.38506,0.09134 -0.47656,0.27734c-0.122,0.248 -0.02144,0.54692 0.22656,0.66992c0.664,0.328 1.3248,0.68741 1.9668,1.06641c0.08,0.047 0.16791,0.06836 0.25391,0.06836c0.17,0 0.33764,-0.08714 0.43164,-0.24414c0.14,-0.238 0.06222,-0.54455 -0.17578,-0.68555c-0.663,-0.392 -1.3472,-0.76256 -2.0332,-1.10156c-0.06225,-0.03025 -0.12841,-0.04702 -0.19336,-0.05078zM67.41406,24.52539c-0.12613,0.02225 -0.24277,0.09208 -0.32227,0.20508c-0.158,0.226 -0.10295,0.53826 0.12305,0.69727c0.332,0.232 0.65942,0.47175 0.98242,0.71875c0.091,0.069 0.19673,0.10156 0.30273,0.10156c0.15,0 0.29944,-0.06631 0.39844,-0.19531c0.168,-0.22 0.12525,-0.53417 -0.09375,-0.70117c-0.334,-0.256 -0.67458,-0.50314 -1.01758,-0.74414c-0.113,-0.079 -0.24692,-0.10428 -0.37305,-0.08203zM44.25,32.72461c-8.8609,0.18951 -15.37727,1.92556 -15.92969,2.07617c-2.12355,0.57905 -3.3833,2.78194 -2.80664,4.90625v0.00195c0.57686,2.12391 2.78039,3.38327 4.90625,2.8125l0.00195,-0.00195c-0.01319,0.0036 1.49397,-0.39351 3.91211,-0.79883c2.41813,-0.40532 5.80051,-0.83296 9.70117,-0.9375c7.80132,-0.20908 17.66642,0.8826 26.05664,5.98633c0.64731,0.39317 1.36746,0.58203 2.07617,0.58203c1.35092,0 2.66795,-0.68714 3.41992,-1.91992c1.14565,-1.88205 0.54417,-4.35158 -1.33789,-5.49609c-9.93334,-6.04185 -21.1391,-7.40045 -30,-7.21094zM44.25195,33.75c8.7366,-0.18599 19.77486,1.13691 29.47852,7.03906c1.41994,0.86349 1.86826,2.70115 1.00391,4.12109c-0.56803,0.93122 -1.55333,1.44141 -2.56641,1.44141c-0.53129,0 -1.06795,-0.14067 -1.55664,-0.4375c-8.63278,-5.25127 -18.68513,-6.34303 -26.60156,-6.13086c-3.95821,0.10608 -7.38501,0.53971 -9.83984,0.95117c-2.45369,0.41127 -3.88142,0.78542 -4.00977,0.82031c-1.60614,0.43123 -3.24455,-0.50728 -3.67969,-2.10938c-0.43534,-1.60369 0.50106,-3.24273 2.10352,-3.67969c0.49658,-0.13539 6.93137,-1.82963 15.66797,-2.01562zM44.09961,45.05664c-7.63855,0.16348 -13.25502,1.66223 -13.73437,1.79297c-1.85866,0.50712 -2.96216,2.43912 -2.45508,4.29883c0.50718,1.85771 2.43691,2.96144 4.29688,2.45312v0.00195c0.01975,-0.0053 4.98436,-1.32378 11.68945,-1.50781c6.70509,-0.18404 15.19035,0.75656 22.43359,5.16211c0.56644,0.34429 1.19689,0.50977 1.81641,0.50977c1.18181,0 2.33511,-0.6024 2.99219,-1.68164c1.00031,-1.64598 0.47511,-3.80714 -1.17187,-4.80859c-8.56787,-5.21188 -18.22864,-6.38419 -25.86719,-6.2207zM44.10156,46.08203c7.51445,-0.16002 17.00757,0.9767 25.3457,6.04883c1.18501,0.72055 1.55753,2.25149 0.83789,3.43555c-0.47292,0.77676 -1.29448,1.20117 -2.13867,1.20117c-0.44249,0 -0.88932,-0.11752 -1.29687,-0.36523c-7.48475,-4.55245 -16.15956,-5.49385 -22.98047,-5.30664c-6.82091,0.18722 -11.74758,1.49336 -11.92383,1.54102h-0.00195c-1.33804,0.36568 -2.70354,-0.41566 -3.06836,-1.75195c-0.36491,-1.3383 0.41657,-2.70543 1.75391,-3.07031c0.42264,-0.11527 5.9582,-1.57241 13.47266,-1.73242zM42.87891,56.55664c-6.62079,0.1424 -11.48809,1.44224 -11.90234,1.55469c-1.59295,0.43412 -2.5395,2.09094 -2.10547,3.68359c0.43422,1.59213 2.09134,2.537 3.68359,2.10547h0.00195c-0.02134,0.0059 0.2894,-0.07835 0.78906,-0.18945c0.49966,-0.11111 1.2215,-0.25952 2.12305,-0.41211c1.80309,-0.30518 4.32586,-0.62732 7.23828,-0.70703c5.82484,-0.15942 13.19325,0.65936 19.47852,4.48242c0.48533,0.29599 1.0256,0.4375 1.55664,0.4375c1.01264,0 2.00331,-0.51726 2.56641,-1.44141c0.85841,-1.41075 0.4066,-3.26284 -1.00391,-4.12109c-7.42955,-4.5194 -15.80499,-5.53498 -22.42578,-5.39258zM42.88672,57.58008c6.49471,-0.13835 14.6969,0.84306 21.89648,5.22266c0.94949,0.57774 1.24751,1.7988 0.66992,2.74805c-0.37891,0.62186 -1.03558,0.96094 -1.71094,0.96094c-0.35496,0 -0.71048,-0.09301 -1.03516,-0.29102h-0.00195c-6.52673,-3.96993 -14.08473,-4.79149 -20.02539,-4.62891c-2.97033,0.08129 -5.53881,0.41121 -7.37891,0.72266c-0.92005,0.15572 -1.65708,0.3074 -2.17187,0.42188c-0.51366,0.11422 -0.77138,0.18138 -0.83594,0.19922c-1.07174,0.29046 -2.16525,-0.33248 -2.45703,-1.40234c-0.29182,-1.07081 0.33229,-2.16449 1.40234,-2.45703c0.36675,-0.09955 5.15373,-1.35774 11.64844,-1.49609z"></path></g></g></svg>